<?xml version="1.0" encoding="UTF-8"?>
<svg xmlns="http://www.w3.org/2000/svg" width="700" height="250" class="diagram" viewBox="0 0 700 250" role="img" aria-label="Scale bars for 1:25,000 and 1:50,000 compared with a centimetre ruler"><style>svg{--bg:#f6f4ee;--panel:#ffffff;--panel-2:#efece3;--text:#1f2a24;--muted:#5c6a61;--line:#d9d4c7;--accent:#2f6b4f;--accent-2:#c2682b;--accent-soft:#e2efe7;--ok:#2e7d4f;--ok-soft:#e1f2e7;--bad:#b3372b;--bad-soft:#f8e3e0;--warn:#9a6a00;--warn-soft:#fbf0d4;--info-soft:#e5eef8;--info:#2c5d8f;--sky:#cfe3f2;--ground:#8b7d5a;background:var(--panel);font-family:system-ui,-apple-system,"Segoe UI",Roboto,sans-serif}@media (prefers-color-scheme:dark){svg{--bg:#141a17;--panel:#1c2420;--panel-2:#232d28;--text:#e6ebe7;--muted:#9aa8a0;--line:#34413a;--accent:#6fbf94;--accent-2:#e7925a;--accent-soft:#1f3a2d;--ok:#6fcf97;--ok-soft:#1c3527;--bad:#f08a7e;--bad-soft:#3b211e;--warn:#e8c15a;--warn-soft:#362d14;--info-soft:#1b2a3a;--info:#8cb8e6;--sky:#1f3345;--ground:#5a5140}}text{fill:var(--text)}.muted-fill{fill:var(--muted)}</style><g><text x="20" y="26" font-size="12" text-anchor="start" font-weight="700">1:25,000 — 1 km = 4 cm</text><rect x="20" y="40" width="40" height="10" fill="var(--text)" stroke="var(--text)" stroke-width="0.8"></rect><rect x="60" y="40" width="40" height="10" fill="var(--panel)" stroke="var(--text)" stroke-width="0.8"></rect><rect x="100" y="40" width="40" height="10" fill="var(--text)" stroke="var(--text)" stroke-width="0.8"></rect><rect x="140" y="40" width="40" height="10" fill="var(--panel)" stroke="var(--text)" stroke-width="0.8"></rect><rect x="180" y="40" width="40" height="10" fill="var(--text)" stroke="var(--text)" stroke-width="0.8"></rect><rect x="220" y="40" width="40" height="10" fill="var(--panel)" stroke="var(--text)" stroke-width="0.8"></rect><rect x="260" y="40" width="40" height="10" fill="var(--text)" stroke="var(--text)" stroke-width="0.8"></rect><rect x="300" y="40" width="40" height="10" fill="var(--panel)" stroke="var(--text)" stroke-width="0.8"></rect><rect x="340" y="40" width="40" height="10" fill="var(--text)" stroke="var(--text)" stroke-width="0.8"></rect><rect x="380" y="40" width="40" height="10" fill="var(--panel)" stroke="var(--text)" stroke-width="0.8"></rect><text x="20" y="66" font-size="11" text-anchor="middle">0 km</text><text x="220" y="66" font-size="11" text-anchor="middle">0.5 km</text><text x="420" y="66" font-size="11" text-anchor="middle">1 km</text><text x="440" y="50" font-size="11" text-anchor="start" class="muted-fill">1 mm = 25 m · 1 cm = 250 m</text></g><g><text x="20" y="106" font-size="12" text-anchor="start" font-weight="700">1:50,000 — 1 km = 2 cm</text><rect x="20" y="120" width="20" height="10" fill="var(--text)" stroke="var(--text)" stroke-width="0.8"></rect><rect x="40" y="120" width="20" height="10" fill="var(--panel)" stroke="var(--text)" stroke-width="0.8"></rect><rect x="60" y="120" width="20" height="10" fill="var(--text)" stroke="var(--text)" stroke-width="0.8"></rect><rect x="80" y="120" width="20" height="10" fill="var(--panel)" stroke="var(--text)" stroke-width="0.8"></rect><rect x="100" y="120" width="20" height="10" fill="var(--text)" stroke="var(--text)" stroke-width="0.8"></rect><rect x="120" y="120" width="20" height="10" fill="var(--panel)" stroke="var(--text)" stroke-width="0.8"></rect><rect x="140" y="120" width="20" height="10" fill="var(--text)" stroke="var(--text)" stroke-width="0.8"></rect><rect x="160" y="120" width="20" height="10" fill="var(--panel)" stroke="var(--text)" stroke-width="0.8"></rect><rect x="180" y="120" width="20" height="10" fill="var(--text)" stroke="var(--text)" stroke-width="0.8"></rect><rect x="200" y="120" width="20" height="10" fill="var(--panel)" stroke="var(--text)" stroke-width="0.8"></rect><rect x="220" y="120" width="200" height="10" fill="var(--panel)" stroke="var(--text)" stroke-width="0.8"></rect><text x="20" y="146" font-size="11" text-anchor="middle">0 km</text><text x="120" y="146" font-size="11" text-anchor="middle">0.5 km</text><text x="220" y="146" font-size="11" text-anchor="middle">1 km</text><text x="420" y="146" font-size="11" text-anchor="middle">2 km</text><text x="440" y="130" font-size="11" text-anchor="start" class="muted-fill">1 mm = 50 m · 1 cm = 500 m</text></g><g transform="translate(20,180)"><rect width="400" height="34" fill="var(--panel-2)" stroke="var(--line)" rx="4"></rect><line x1="0" x2="0" y1="0" y2="16" stroke="var(--text)" stroke-width="0.8"></line><line x1="10" x2="10" y1="0" y2="7" stroke="var(--text)" stroke-width="0.8"></line><line x1="20" x2="20" y1="0" y2="7" stroke="var(--text)" stroke-width="0.8"></line><line x1="30" x2="30" y1="0" y2="7" stroke="var(--text)" stroke-width="0.8"></line><line x1="40" x2="40" y1="0" y2="7" stroke="var(--text)" stroke-width="0.8"></line><line x1="50" x2="50" y1="0" y2="11" stroke="var(--text)" stroke-width="0.8"></line><line x1="60" x2="60" y1="0" y2="7" stroke="var(--text)" stroke-width="0.8"></line><line x1="70" x2="70" y1="0" y2="7" stroke="var(--text)" stroke-width="0.8"></line><line x1="80" x2="80" y1="0" y2="7" stroke="var(--text)" stroke-width="0.8"></line><line x1="90" x2="90" y1="0" y2="7" stroke="var(--text)" stroke-width="0.8"></line><line x1="100" x2="100" y1="0" y2="16" stroke="var(--text)" stroke-width="0.8"></line><line x1="110" x2="110" y1="0" y2="7" stroke="var(--text)" stroke-width="0.8"></line><line x1="120" x2="120" y1="0" y2="7" stroke="var(--text)" stroke-width="0.8"></line><line x1="130" x2="130" y1="0" y2="7" stroke="var(--text)" stroke-width="0.8"></line><line x1="140" x2="140" y1="0" y2="7" stroke="var(--text)" stroke-width="0.8"></line><line x1="150" x2="150" y1="0" y2="11" stroke="var(--text)" stroke-width="0.8"></line><line x1="160" x2="160" y1="0" y2="7" stroke="var(--text)" stroke-width="0.8"></line><line x1="170" x2="170" y1="0" y2="7" stroke="var(--text)" stroke-width="0.8"></line><line x1="180" x2="180" y1="0" y2="7" stroke="var(--text)" stroke-width="0.8"></line><line x1="190" x2="190" y1="0" y2="7" stroke="var(--text)" stroke-width="0.8"></line><line x1="200" x2="200" y1="0" y2="16" stroke="var(--text)" stroke-width="0.8"></line><line x1="210" x2="210" y1="0" y2="7" stroke="var(--text)" stroke-width="0.8"></line><line x1="220" x2="220" y1="0" y2="7" stroke="var(--text)" stroke-width="0.8"></line><line x1="230" x2="230" y1="0" y2="7" stroke="var(--text)" stroke-width="0.8"></line><line x1="240" x2="240" y1="0" y2="7" stroke="var(--text)" stroke-width="0.8"></line><line x1="250" x2="250" y1="0" y2="11" stroke="var(--text)" stroke-width="0.8"></line><line x1="260" x2="260" y1="0" y2="7" stroke="var(--text)" stroke-width="0.8"></line><line x1="270" x2="270" y1="0" y2="7" stroke="var(--text)" stroke-width="0.8"></line><line x1="280" x2="280" y1="0" y2="7" stroke="var(--text)" stroke-width="0.8"></line><line x1="290" x2="290" y1="0" y2="7" stroke="var(--text)" stroke-width="0.8"></line><line x1="300" x2="300" y1="0" y2="16" stroke="var(--text)" stroke-width="0.8"></line><line x1="310" x2="310" y1="0" y2="7" stroke="var(--text)" stroke-width="0.8"></line><line x1="320" x2="320" y1="0" y2="7" stroke="var(--text)" stroke-width="0.8"></line><line x1="330" x2="330" y1="0" y2="7" stroke="var(--text)" stroke-width="0.8"></line><line x1="340" x2="340" y1="0" y2="7" stroke="var(--text)" stroke-width="0.8"></line><line x1="350" x2="350" y1="0" y2="11" stroke="var(--text)" stroke-width="0.8"></line><line x1="360" x2="360" y1="0" y2="7" stroke="var(--text)" stroke-width="0.8"></line><line x1="370" x2="370" y1="0" y2="7" stroke="var(--text)" stroke-width="0.8"></line><line x1="380" x2="380" y1="0" y2="7" stroke="var(--text)" stroke-width="0.8"></line><line x1="390" x2="390" y1="0" y2="7" stroke="var(--text)" stroke-width="0.8"></line><line x1="400" x2="400" y1="0" y2="16" stroke="var(--text)" stroke-width="0.8"></line><text x="3" y="28" font-size="10" text-anchor="start">0 cm</text><text x="103" y="28" font-size="10" text-anchor="start">1 cm</text><text x="203" y="28" font-size="10" text-anchor="start">2 cm</text><text x="303" y="28" font-size="10" text-anchor="start">3 cm</text><text x="403" y="28" font-size="10" text-anchor="start">4 cm</text></g><text x="460" y="200" font-size="11" text-anchor="start" class="muted-fill">Ruler shown at 1 cm = 100 px:</text><text x="460" y="216" font-size="11" text-anchor="start" class="muted-fill">at 1:25,000, 4 cm = 1 km.</text></svg>
