<?xml version="1.0" encoding="UTF-8"?>
<svg xmlns="http://www.w3.org/2000/svg" width="640" height="300" class="diagram" viewBox="0 0 640 300" role="img" aria-label="Direction of travel cues. Cross-section of a footprint: heel strike at the rear, weight rolls forward, the toe end is dug deepest and a ridge of soil is shoved up behind the toes at push-off. Plan view: grass stems bent and pressed in the direction of travel, and a dark dew-free line through wet grass."><style>svg{--bg:#f6f4ee;--panel:#ffffff;--panel-2:#efece3;--text:#1f2a24;--muted:#5c6a61;--line:#d9d4c7;--accent:#2f6b4f;--accent-2:#c2682b;--accent-soft:#e2efe7;--ok:#2e7d4f;--ok-soft:#e1f2e7;--bad:#b3372b;--bad-soft:#f8e3e0;--warn:#9a6a00;--warn-soft:#fbf0d4;--info-soft:#e5eef8;--info:#2c5d8f;--sky:#cfe3f2;--ground:#8b7d5a;background:var(--panel);font-family:system-ui,-apple-system,"Segoe UI",Roboto,sans-serif}@media (prefers-color-scheme:dark){svg{--bg:#141a17;--panel:#1c2420;--panel-2:#232d28;--text:#e6ebe7;--muted:#9aa8a0;--line:#34413a;--accent:#6fbf94;--accent-2:#e7925a;--accent-soft:#1f3a2d;--ok:#6fcf97;--ok-soft:#1c3527;--bad:#f08a7e;--bad-soft:#3b211e;--warn:#e8c15a;--warn-soft:#362d14;--info-soft:#1b2a3a;--info:#8cb8e6;--sky:#1f3345;--ground:#5a5140}}text{fill:var(--text)}.muted-fill{fill:var(--muted)}</style><defs><marker id="dc-a" viewBox="0 0 10 10" refX="9" refY="5" markerWidth="7" markerHeight="7" orient="auto-start-reverse"><path d="M0,0 L10,5 L0,10 z" fill="var(--accent)"></path></marker></defs><text x="20" y="26" text-anchor="start" font-size="13" font-weight="700">Cross-section of a print in soft soil</text><path d="M20,120 L110,120 Q120,121 126,138 L150,142 L230,146 Q250,150 262,164 Q272,168 280,150 L292,122 L340,120" fill="none" stroke="var(--ground)" stroke-width="3"></path><path d="M20,120 L110,120 Q120,121 126,138 L150,142 L230,146 Q250,150 262,164 Q272,168 280,150 L292,122 L340,120 L340,190 L20,190 Z" fill="var(--ground)" opacity="0.3"></path><path d="M236,146 q8,-12 16,0" fill="var(--ground)" opacity="0.8"></path><line x1="128" y1="136" x2="100" y2="70" stroke="var(--muted)" stroke-width="1"></line><text x="60" y="64" text-anchor="start" font-size="11" font-weight="400">heel strike</text><line x1="266" y1="164" x2="300" y2="214" stroke="var(--muted)" stroke-width="1"></line><text x="250" y="228" text-anchor="start" font-size="11" font-weight="400">toe dig (deepest)</text><line x1="244" y1="142" x2="220" y2="70" stroke="var(--muted)" stroke-width="1"></line><text x="176" y="64" text-anchor="start" font-size="11" font-weight="400">ridge shoved back at push-off</text><line x1="120" y1="100" x2="290" y2="100" stroke="var(--accent)" stroke-width="2" marker-end="url(#dc-a)"></line><text x="205" y="94" text-anchor="middle" font-size="11" font-weight="400" class="muted-fill">travel</text><text x="20" y="260" text-anchor="start" font-size="11" font-weight="400">Pressure moves from heel to toes; the front of the print</text><text x="20" y="276" text-anchor="start" font-size="11" font-weight="400">is usually deeper and its rim steeper.</text><text x="380" y="26" text-anchor="start" font-size="13" font-weight="700">Plan view: vegetation</text><rect x="380" y="40" width="250" height="170" rx="8" fill="var(--ok)" opacity="0.12"></rect><path d="M392,72 q2,-10 0,-18" stroke="var(--ok)" stroke-width="2" fill="none"></path><path d="M419,72 q2,-10 0,-18" stroke="var(--ok)" stroke-width="2" fill="none"></path><path d="M446,72 q2,-10 0,-18" stroke="var(--ok)" stroke-width="2" fill="none"></path><path d="M473,72 q2,-10 0,-18" stroke="var(--ok)" stroke-width="2" fill="none"></path><path d="M500,72 q2,-10 0,-18" stroke="var(--ok)" stroke-width="2" fill="none"></path><path d="M527,72 q2,-10 0,-18" stroke="var(--ok)" stroke-width="2" fill="none"></path><path d="M554,72 q2,-10 0,-18" stroke="var(--ok)" stroke-width="2" fill="none"></path><path d="M581,72 q2,-10 0,-18" stroke="var(--ok)" stroke-width="2" fill="none"></path><path d="M608,72 q2,-10 0,-18" stroke="var(--ok)" stroke-width="2" fill="none"></path><path d="M392,110 q10,-2 18,-8" stroke="var(--ok)" stroke-width="2" fill="none"></path><path d="M419,110 q10,-2 18,-8" stroke="var(--ok)" stroke-width="2" fill="none"></path><path d="M446,110 q10,-2 18,-8" stroke="var(--ok)" stroke-width="2" fill="none"></path><path d="M473,110 q10,-2 18,-8" stroke="var(--ok)" stroke-width="2" fill="none"></path><path d="M500,110 q10,-2 18,-8" stroke="var(--ok)" stroke-width="2" fill="none"></path><path d="M527,110 q10,-2 18,-8" stroke="var(--ok)" stroke-width="2" fill="none"></path><path d="M554,110 q10,-2 18,-8" stroke="var(--ok)" stroke-width="2" fill="none"></path><path d="M581,110 q10,-2 18,-8" stroke="var(--ok)" stroke-width="2" fill="none"></path><path d="M608,110 q10,-2 18,-8" stroke="var(--ok)" stroke-width="2" fill="none"></path><path d="M392,148 q10,-2 18,-8" stroke="var(--ok)" stroke-width="2" fill="none"></path><path d="M419,148 q10,-2 18,-8" stroke="var(--ok)" stroke-width="2" fill="none"></path><path d="M446,148 q10,-2 18,-8" stroke="var(--ok)" stroke-width="2" fill="none"></path><path d="M473,148 q10,-2 18,-8" stroke="var(--ok)" stroke-width="2" fill="none"></path><path d="M500,148 q10,-2 18,-8" stroke="var(--ok)" stroke-width="2" fill="none"></path><path d="M527,148 q10,-2 18,-8" stroke="var(--ok)" stroke-width="2" fill="none"></path><path d="M554,148 q10,-2 18,-8" stroke="var(--ok)" stroke-width="2" fill="none"></path><path d="M581,148 q10,-2 18,-8" stroke="var(--ok)" stroke-width="2" fill="none"></path><path d="M608,148 q10,-2 18,-8" stroke="var(--ok)" stroke-width="2" fill="none"></path><path d="M392,186 q2,-10 0,-18" stroke="var(--ok)" stroke-width="2" fill="none"></path><path d="M419,186 q2,-10 0,-18" stroke="var(--ok)" stroke-width="2" fill="none"></path><path d="M446,186 q2,-10 0,-18" stroke="var(--ok)" stroke-width="2" fill="none"></path><path d="M473,186 q2,-10 0,-18" stroke="var(--ok)" stroke-width="2" fill="none"></path><path d="M500,186 q2,-10 0,-18" stroke="var(--ok)" stroke-width="2" fill="none"></path><path d="M527,186 q2,-10 0,-18" stroke="var(--ok)" stroke-width="2" fill="none"></path><path d="M554,186 q2,-10 0,-18" stroke="var(--ok)" stroke-width="2" fill="none"></path><path d="M581,186 q2,-10 0,-18" stroke="var(--ok)" stroke-width="2" fill="none"></path><path d="M608,186 q2,-10 0,-18" stroke="var(--ok)" stroke-width="2" fill="none"></path><rect x="380" y="100" width="250" height="60" fill="var(--info)" opacity="0.08"></rect><line x1="400" y1="186" x2="610" y2="186" stroke="var(--accent)" stroke-width="2" marker-end="url(#dc-a)"></line><text x="505" y="204" text-anchor="middle" font-size="10" font-weight="400" class="muted-fill">stems bent and pressed the way the animal went</text><text x="380" y="236" text-anchor="start" font-size="11" font-weight="400">At dawn, a dark line through dewy grass</text><text x="380" y="252" text-anchor="start" font-size="11" font-weight="400">shows where dew was knocked off.</text><text x="380" y="276" text-anchor="start" font-size="11" font-weight="400" class="muted-fill">Stems spring back over hours; the lean fades.</text></svg>
