<?xml version="1.0" encoding="UTF-8"?>
<svg xmlns="http://www.w3.org/2000/svg" width="660" height="290" class="diagram" viewBox="0 0 660 290" role="img" aria-label="Force in each anchor leg as a multiple of the load, against the angle between the legs: 0.5 at 0 degrees, 0.58 at 60, 0.71 at 90, 1.0 at 120, 1.93 at 150, rising steeply toward infinity at 180"><style>svg{--bg:#f6f4ee;--panel:#ffffff;--panel-2:#efece3;--text:#1f2a24;--muted:#5c6a61;--line:#d9d4c7;--accent:#2f6b4f;--accent-2:#c2682b;--accent-soft:#e2efe7;--ok:#2e7d4f;--ok-soft:#e1f2e7;--bad:#b3372b;--bad-soft:#f8e3e0;--warn:#9a6a00;--warn-soft:#fbf0d4;--info-soft:#e5eef8;--info:#2c5d8f;--sky:#cfe3f2;--ground:#8b7d5a;background:var(--panel);font-family:system-ui,-apple-system,"Segoe UI",Roboto,sans-serif}@media (prefers-color-scheme:dark){svg{--bg:#141a17;--panel:#1c2420;--panel-2:#232d28;--text:#e6ebe7;--muted:#9aa8a0;--line:#34413a;--accent:#6fbf94;--accent-2:#e7925a;--accent-soft:#1f3a2d;--ok:#6fcf97;--ok-soft:#1c3527;--bad:#f08a7e;--bad-soft:#3b211e;--warn:#e8c15a;--warn-soft:#362d14;--info-soft:#1b2a3a;--info:#8cb8e6;--sky:#1f3345;--ground:#5a5140}}text{fill:var(--text)}.muted-fill{fill:var(--muted)}</style><line x1="60" y1="240" x2="390" y2="240" stroke="var(--line)"></line><line x1="60" y1="240" x2="60" y2="50" stroke="var(--line)"></line><rect x="292.94" y="50" width="97.06" height="190" fill="var(--bad)" opacity="0.12"></rect><rect x="234.71" y="50" width="58.24" height="190" fill="var(--accent-2)" opacity="0.12"></rect><polyline points="60,208.33 61.94,208.33 63.88,208.33 65.82,208.32 67.76,208.31 69.71,208.3 71.65,208.29 73.59,208.27 75.53,208.26 77.47,208.24 79.41,208.21 81.35,208.19 83.29,208.16 85.24,208.13 87.18,208.1 89.12,208.06 91.06,208.02 93,207.98 94.94,207.94 96.88,207.89 98.82,207.84 100.76,207.79 102.71,207.74 104.65,207.68 106.59,207.63 108.53,207.56 110.47,207.5 112.41,207.43 114.35,207.36 116.29,207.29 118.24,207.22 120.18,207.14 122.12,207.06 124.06,206.97 126,206.89 127.94,206.8 129.88,206.7 131.82,206.61 133.76,206.51 135.71,206.41 137.65,206.3 139.59,206.19 141.53,206.08 143.47,205.97 145.41,205.85 147.35,205.72 149.29,205.6 151.24,205.47 153.18,205.34 155.12,205.2 157.06,205.06 159,204.92 160.94,204.77 162.88,204.62 164.82,204.46 166.76,204.3 168.71,204.14 170.65,203.97 172.59,203.79 174.53,203.62 176.47,203.43 178.41,203.25 180.35,203.06 182.29,202.86 184.24,202.66 186.18,202.45 188.12,202.24 190.06,202.03 192,201.8 193.94,201.58 195.88,201.34 197.82,201.1 199.76,200.86 201.71,200.61 203.65,200.35 205.59,200.09 207.53,199.81 209.47,199.54 211.41,199.25 213.35,198.96 215.29,198.66 217.24,198.36 219.18,198.04 221.12,197.72 223.06,197.39 225,197.05 226.94,196.7 228.88,196.34 230.82,195.98 232.76,195.6 234.71,195.22 236.65,194.82 238.59,194.41 240.53,194 242.47,193.57 244.41,193.13 246.35,192.67 248.29,192.21 250.24,191.73 252.18,191.24 254.12,190.74 256.06,190.22 258,189.68 259.94,189.13 261.88,188.56 263.82,187.98 265.76,187.38 267.71,186.76 269.65,186.13 271.59,185.47 273.53,184.79 275.47,184.09 277.41,183.37 279.35,182.63 281.29,181.86 283.24,181.06 285.18,180.24 287.12,179.39 289.06,178.52 291,177.61 292.94,176.67 294.88,175.69 296.82,174.68 298.76,173.63 300.71,172.55 302.65,171.42 304.59,170.25 306.53,169.03 308.47,167.76 310.41,166.44 312.35,165.07 314.29,163.64 316.24,162.14 318.18,160.58 320.12,158.96 322.06,157.25 324,155.47 325.94,153.6 327.88,151.64 329.82,149.58 331.76,147.41 333.71,145.13 335.65,142.73 337.59,140.2 339.53,137.52 341.47,134.69 343.41,131.69 345.35,128.5 347.29,125.11 349.24,121.5 351.18,117.65 353.12,113.53 355.06,109.1 357,104.35 358.94,99.23 360.88,93.69 362.82,87.69 364.76,81.16 366.71,74.04 368.65,66.23 370.59,57.64 372.53,50 374.47,50 376.41,50 378.35,50 380.29,50 382.24,50 384.18,50 386.12,50 388.06,50 390,50" fill="none" stroke="var(--accent)" stroke-width="3"></polyline><text x="54" y="212.33" text-anchor="end" font-size="10" class="muted-fill">0.5×</text><text x="54" y="180.67" text-anchor="end" font-size="10" class="muted-fill">1×</text><text x="54" y="117.33" text-anchor="end" font-size="10" class="muted-fill">2×</text><text x="54" y="54" text-anchor="end" font-size="10" class="muted-fill">3×</text><g><text x="60" y="254" text-anchor="middle" font-size="10" class="muted-fill">0°</text><circle cx="60" cy="208.33" r="4" fill="var(--text)"></circle><text x="66" y="202.33" font-size="10" font-weight="700">0.50</text></g><g><text x="176.47" y="254" text-anchor="middle" font-size="10" class="muted-fill">60°</text><circle cx="176.47" cy="203.43" r="4" fill="var(--text)"></circle><text x="182.47" y="197.43" font-size="10" font-weight="700">0.58</text></g><g><text x="234.71" y="254" text-anchor="middle" font-size="10" class="muted-fill">90°</text><circle cx="234.71" cy="195.22" r="4" fill="var(--text)"></circle><text x="240.71" y="189.22" font-size="10" font-weight="700">0.71</text></g><g><text x="292.94" y="254" text-anchor="middle" font-size="10" class="muted-fill">120°</text><circle cx="292.94" cy="176.67" r="4" fill="var(--text)"></circle><text x="298.94" y="170.67" font-size="10" font-weight="700">1.00</text></g><g><text x="351.18" y="254" text-anchor="middle" font-size="10" class="muted-fill">150°</text><circle cx="351.18" cy="117.65" r="4" fill="var(--text)"></circle><text x="357.18" y="111.65" font-size="10" font-weight="700">1.93</text></g><text x="225" y="272" text-anchor="middle" font-size="11">angle between the two legs</text><text x="20" y="24" font-size="13" font-weight="700">Each leg carries: load ÷ (2 · cos(angle ÷ 2))</text><g><line x1="422.5" y1="102.37" x2="450" y2="150" stroke="var(--ok)" stroke-width="4"></line><line x1="477.5" y1="102.37" x2="450" y2="150" stroke="var(--ok)" stroke-width="4"></line><line x1="450" y1="150" x2="450" y2="185" stroke="var(--text)" stroke-width="3"></line><text x="450" y="202" text-anchor="middle" font-size="11" font-weight="700">60°</text><text x="450" y="216" text-anchor="middle" font-size="10" class="muted-fill">0.58×</text></g><g><line x1="477.37" y1="122.5" x2="525" y2="150" stroke="var(--accent-2)" stroke-width="4"></line><line x1="572.63" y1="122.5" x2="525" y2="150" stroke="var(--accent-2)" stroke-width="4"></line><line x1="525" y1="150" x2="525" y2="185" stroke="var(--text)" stroke-width="3"></line><text x="525" y="202" text-anchor="middle" font-size="11" font-weight="700">120°</text><text x="525" y="216" text-anchor="middle" font-size="10" class="muted-fill">1.00×</text></g><g><line x1="545.84" y1="140.45" x2="600" y2="150" stroke="var(--bad)" stroke-width="4"></line><line x1="654.16" y1="140.45" x2="600" y2="150" stroke="var(--bad)" stroke-width="4"></line><line x1="600" y1="150" x2="600" y2="185" stroke="var(--text)" stroke-width="3"></line><text x="600" y="202" text-anchor="middle" font-size="11" font-weight="700">160°</text><text x="600" y="216" text-anchor="middle" font-size="10" class="muted-fill">2.88×</text></g><text x="430" y="260" font-size="11">Narrow is kind to anchors;</text><text x="430" y="276" font-size="11">a tight “flat” line is brutal.</text></svg>
