<?xml version="1.0" encoding="UTF-8"?>
<svg xmlns="http://www.w3.org/2000/svg" width="660" height="300" class="diagram" viewBox="0 0 660 300" role="img" aria-label="Actual mechanical advantage compared with ideal for 2:1, 3:1, 5:1, 6:1 and 9:1 systems at pulley efficiencies of 1, 0.95, 0.85 and about 0.53 for carabiners. A 9:1 built with carabiners gives only about 3.3:1"><style>svg{--bg:#f6f4ee;--panel:#ffffff;--panel-2:#efece3;--text:#1f2a24;--muted:#5c6a61;--line:#d9d4c7;--accent:#2f6b4f;--accent-2:#c2682b;--accent-soft:#e2efe7;--ok:#2e7d4f;--ok-soft:#e1f2e7;--bad:#b3372b;--bad-soft:#f8e3e0;--warn:#9a6a00;--warn-soft:#fbf0d4;--info-soft:#e5eef8;--info:#2c5d8f;--sky:#cfe3f2;--ground:#8b7d5a;background:var(--panel);font-family:system-ui,-apple-system,"Segoe UI",Roboto,sans-serif}@media (prefers-color-scheme:dark){svg{--bg:#141a17;--panel:#1c2420;--panel-2:#232d28;--text:#e6ebe7;--muted:#9aa8a0;--line:#34413a;--accent:#6fbf94;--accent-2:#e7925a;--accent-soft:#1f3a2d;--ok:#6fcf97;--ok-soft:#1c3527;--bad:#f08a7e;--bad-soft:#3b211e;--warn:#e8c15a;--warn-soft:#362d14;--info-soft:#1b2a3a;--info:#8cb8e6;--sky:#1f3345;--ground:#5a5140}}text{fill:var(--text)}.muted-fill{fill:var(--muted)}</style><text x="20" y="22" font-size="13" font-weight="700">Actual MA = 1 + η + η² + … (× for compound systems)</text><line x1="50" y1="230" x2="640" y2="230" stroke="var(--line)"></line><text x="44" y="234" text-anchor="end" font-size="10" class="muted-fill">0</text><text x="44" y="174" text-anchor="end" font-size="10" class="muted-fill">3</text><text x="44" y="114" text-anchor="end" font-size="10" class="muted-fill">6</text><text x="44" y="54" text-anchor="end" font-size="10" class="muted-fill">9</text><g><g><rect x="70" y="190" width="19" height="40" fill="var(--line)" stroke="var(--muted)"></rect><text x="79.5" y="186" text-anchor="middle" font-size="9">2.0</text></g><g><rect x="92" y="191" width="19" height="39" fill="var(--ok)" stroke="none"></rect><text x="101.5" y="187" text-anchor="middle" font-size="9">1.9</text></g><g><rect x="114" y="193" width="19" height="37" fill="var(--info)" stroke="none"></rect><text x="123.5" y="189" text-anchor="middle" font-size="9">1.9</text></g><g><rect x="136" y="199.33023817817792" width="19" height="30.669761821822078" fill="var(--bad)" stroke="none"></rect><text x="145.5" y="195.33023817817792" text-anchor="middle" font-size="9">1.5</text></g><text x="114" y="248" text-anchor="middle" font-size="11" font-weight="700">2:1</text></g><g><g><rect x="190" y="170" width="19" height="60" fill="var(--line)" stroke="var(--muted)"></rect><text x="199.5" y="166" text-anchor="middle" font-size="9">3.0</text></g><g><rect x="212" y="172.95" width="19" height="57.05000000000001" fill="var(--ok)" stroke="none"></rect><text x="221.5" y="168.95" text-anchor="middle" font-size="9">2.9</text></g><g><rect x="234" y="178.55" width="19" height="51.44999999999999" fill="var(--info)" stroke="none"></rect><text x="243.5" y="174.55" text-anchor="middle" font-size="9">2.6</text></g><g><rect x="256" y="193.63804731145734" width="19" height="36.36195268854266" fill="var(--bad)" stroke="none"></rect><text x="265.5" y="189.63804731145734" text-anchor="middle" font-size="9">1.8</text></g><text x="234" y="248" text-anchor="middle" font-size="11" font-weight="700">3:1</text></g><g><g><rect x="310" y="130" width="19" height="100" fill="var(--line)" stroke="var(--muted)"></rect><text x="319.5" y="126" text-anchor="middle" font-size="9">5.0</text></g><g><rect x="332" y="139.51237500000002" width="19" height="90.48762499999998" fill="var(--ok)" stroke="none"></rect><text x="341.5" y="135.51237500000002" text-anchor="middle" font-size="9">4.5</text></g><g><rect x="354" y="155.82737500000002" width="19" height="74.17262499999998" fill="var(--info)" stroke="none"></rect><text x="363.5" y="151.82737500000002" text-anchor="middle" font-size="9">3.7</text></g><g><rect x="376" y="188.9812794286855" width="19" height="41.0187205713145" fill="var(--bad)" stroke="none"></rect><text x="385.5" y="184.9812794286855" text-anchor="middle" font-size="9">2.1</text></g><text x="354" y="248" text-anchor="middle" font-size="11" font-weight="700">5:1</text></g><g><g><rect x="430" y="110" width="19" height="120" fill="var(--line)" stroke="var(--muted)"></rect><text x="439.5" y="106" text-anchor="middle" font-size="9">6.0</text></g><g><rect x="452" y="118.7525" width="19" height="111.2475" fill="var(--ok)" stroke="none"></rect><text x="461.5" y="114.7525" text-anchor="middle" font-size="9">5.6</text></g><g><rect x="474" y="134.8175" width="19" height="95.1825" fill="var(--info)" stroke="none"></rect><text x="483.5" y="130.8175" text-anchor="middle" font-size="9">4.8</text></g><g><rect x="496" y="174.23937858330171" width="19" height="55.760621416698285" fill="var(--bad)" stroke="none"></rect><text x="505.5" y="170.23937858330171" text-anchor="middle" font-size="9">2.8</text></g><text x="474" y="248" text-anchor="middle" font-size="11" font-weight="700">6:1 (2 on 3)</text></g><g><g><rect x="550" y="50" width="19" height="180" fill="var(--line)" stroke="var(--muted)"></rect><text x="559.5" y="46" text-anchor="middle" font-size="9">9.0</text></g><g><rect x="572" y="67.26487500000002" width="19" height="162.73512499999998" fill="var(--ok)" stroke="none"></rect><text x="581.5" y="63.26487500000002" text-anchor="middle" font-size="9">8.1</text></g><g><rect x="594" y="97.64487500000001" width="19" height="132.355125" fill="var(--info)" stroke="none"></rect><text x="603.5" y="93.64487500000001" text-anchor="middle" font-size="9">6.6</text></g><g><rect x="616" y="163.8904198338093" width="19" height="66.10958016619071" fill="var(--bad)" stroke="none"></rect><text x="625.5" y="159.8904198338093" text-anchor="middle" font-size="9">3.3</text></g><text x="594" y="248" text-anchor="middle" font-size="11" font-weight="700">9:1 (3 on 3)</text></g><g><rect x="60" y="266" width="12" height="12" fill="var(--line)" stroke="var(--muted)"></rect><text x="78" y="276" font-size="11">ideal (no friction)</text></g><g><rect x="200" y="266" width="12" height="12" fill="var(--ok)" stroke="none"></rect><text x="218" y="276" font-size="11">η = 0.95</text></g><g><rect x="340" y="266" width="12" height="12" fill="var(--info)" stroke="none"></rect><text x="358" y="276" font-size="11">η = 0.85</text></g><g><rect x="480" y="266" width="12" height="12" fill="var(--bad)" stroke="none"></rect><text x="498" y="276" font-size="11">carabiner η ≈ 0.53</text></g><text x="20" y="296" font-size="10" class="muted-fill">Model efficiencies for illustration; real pulleys, ropes and loads differ.</text></svg>
